<?xml version="1.0" ?><!DOCTYPE svg  PUBLIC '-//W3C//DTD SVG 1.1//EN'  'http://www.w3.org/Graphics/SVG/1.1/DTD/svg11.dtd'><svg enable-background="new 0 0 500 500" height="500px" id="Capa_1" version="1.1" viewBox="0 0 500 500" width="500px" xml:space="preserve" xmlns="http://www.w3.org/2000/svg" xmlns:xlink="http://www.w3.org/1999/xlink"><path d="M412.226,87.133L88.29,412.367c41.458,40.974,98.435,66.279,161.33,66.279  c126.765,0,229.527-102.764,229.527-229.527C479.146,185.895,453.58,128.644,412.226,87.133z" fill="#477EAF"/><path d="M249.619,19.592c-126.765,0-229.527,102.762-229.527,229.527c0,63.87,26.096,121.639,68.197,163.248  L412.226,87.133C370.665,45.414,313.159,19.592,249.619,19.592z" fill="#33678E"/><circle cx="249.062" cy="248.562" fill="none" r="243.438" stroke="#477EAF" stroke-miterlimit="10" stroke-width="5"/><g><path clip-rule="evenodd" d="M265.214,383.595c-18.557,0-36.909,0-55.426,0   c-0.035-0.666-0.095-1.271-0.095-1.878c-0.003-58.061-0.003-116.119,0.007-174.179c0-2.834-0.346-2.572,2.629-2.574   c16.186-0.01,32.371-0.004,48.557-0.002c2.134,0,2.136,0.008,2.137,2.132c0.002,6.787-0.002,13.574,0.009,20.362   c0,0.586,0.089,1.172,0.174,2.22c0.543-0.703,0.817-0.992,1.015-1.324c8.089-13.631,20.183-21.811,35.285-25.857   c8.427-2.258,17.019-2.332,25.645-1.715c8.007,0.573,15.811,2.103,23.238,5.236c12.738,5.373,21.439,14.723,26.771,27.347   c3.705,8.774,5.532,17.999,6.619,27.418c1.207,10.445,1.236,20.93,1.229,31.42c-0.024,29.552-0.008,59.104-0.008,88.655   c0,0.875,0,1.749,0,2.754c-0.735,0.039-1.294,0.093-1.852,0.093c-17.177,0.004-34.354,0.004-51.533,0   c-2.199,0-2.197-0.009-2.197-2.228c-0.001-29.865,0.042-59.73-0.034-89.598c-0.021-7.875-0.384-15.755-2.661-23.396   c-1.826-6.12-4.824-11.431-10.315-15.02c-3.576-2.337-7.577-3.525-11.777-3.87c-5.861-0.48-11.681-0.159-17.299,1.837   c-8.948,3.177-14.139,9.803-16.986,18.56c-2.382,7.325-3.081,14.914-3.102,22.542c-0.075,29.552-0.029,59.104-0.029,88.654   C265.214,381.952,265.214,382.722,265.214,383.595z" fill="#FFFFFF" fill-rule="evenodd"/><path clip-rule="evenodd" d="M174.907,294.447c0,29.026,0,58.051,0,87.078   c0,2.179-0.004,2.179-2.239,2.179c-17.07-0.002-34.142-0.002-51.212-0.011c-2.231-0.002-2.233-0.024-2.233-2.251   c0-58.051,0-116.101,0.002-174.153c0-2.318,0.001-2.325,2.282-2.325c17.071-0.003,34.142-0.004,51.212-0.004   c2.181,0,2.188,0.006,2.188,2.253C174.907,236.291,174.907,265.368,174.907,294.447z" fill="#FFFFFF" fill-rule="evenodd"/><path clip-rule="evenodd" d="M114.785,148.349c-0.005-17.915,14.425-32.351,32.337-32.349   c17.68,0.001,32.162,14.458,32.225,32.171c0.065,18.01-14.484,32.34-32.835,32.339   C129.246,180.509,114.791,165.856,114.785,148.349z" fill="#FFFFFF" fill-rule="evenodd"/></g></svg>